<?xml version="1.0" encoding="UTF-8"?>
<svg version="1.1" xmlns="http://www.w3.org/2000/svg" width="624" height="400">
<path d="M0 0 C1.1210463 -0.00335861 2.24209259 -0.00671722 3.39710999 -0.01017761 C7.09686394 -0.01966392 10.79657254 -0.02162945 14.49633789 -0.02270508 C17.07174193 -0.02591885 19.64714578 -0.02928301 22.22254944 -0.03279114 C27.61842347 -0.0387763 33.01427956 -0.04067451 38.41015625 -0.04003906 C44.6358664 -0.03943822 50.86148993 -0.0499952 57.08717817 -0.06578273 C63.09075155 -0.08046119 69.09427806 -0.08402642 75.09787178 -0.08342934 C77.64593421 -0.08460888 80.19399729 -0.08902923 82.74204826 -0.0967617 C86.30596985 -0.10656586 89.86966853 -0.10368187 93.43359375 -0.09765625 C94.48368622 -0.10327576 95.53377869 -0.10889526 96.61569214 -0.11468506 C102.04961019 -0.09135583 106.68991299 0.16858627 111.78149414 2.14526367 C115.64258938 6.20957445 116.90385036 8.76998472 116.92866516 14.28070068 C116.93939812 15.91257828 116.93939812 15.91257828 116.9503479 17.5774231 C116.9530368 18.77640228 116.95572571 19.97538147 116.95849609 21.21069336 C116.96506729 22.46931183 116.97163849 23.7279303 116.97840881 25.02468872 C116.99945813 29.20549238 117.00981298 33.38629644 117.01977539 37.56713867 C117.02382282 39.00644195 117.02793974 40.44574503 117.03212547 41.88504791 C117.05118021 48.64788293 117.06540982 55.41070701 117.07373744 62.17356372 C117.08350702 69.97856163 117.10981774 77.78327572 117.15023834 85.58817363 C117.18041041 91.62138126 117.1952074 97.65450759 117.19851846 103.6877892 C117.20086803 107.29083546 117.20981561 110.89357861 117.23497963 114.49654388 C117.26261637 118.51862915 117.25842595 122.54008166 117.25146484 126.56225586 C117.27067993 128.34857925 117.27067993 128.34857925 117.2902832 130.17098999 C117.25066324 136.44278173 117.12036109 140.44363573 112.78149414 145.14526367 C109.46135702 147.35868842 108.4615947 147.39339813 104.59931946 147.38577271 C102.99023712 147.3898967 102.99023712 147.3898967 101.34864807 147.394104 C99.58351112 147.38331818 99.58351112 147.38331818 97.78271484 147.37231445 C95.92400253 147.37275253 95.92400253 147.37275253 94.02774048 147.37319946 C90.62917114 147.37204394 87.23084405 147.3620058 83.83231759 147.34805155 C80.28089373 147.33555851 76.72946673 147.33437482 73.17802429 147.33200073 C66.45260083 147.32578176 59.7272423 147.30936532 53.00184745 147.28930175 C45.34534261 147.26695572 37.68883468 147.25595259 30.03230536 147.24591088 C14.28199733 147.22499944 -1.46824589 147.18981538 -17.21850586 147.14526367 C-17.54850586 146.15526367 -17.87850586 145.16526367 -18.21850586 144.14526367 C-19.20850586 143.81526367 -20.19850586 143.48526367 -21.21850586 143.14526367 C-22.50280203 140.57667134 -22.35602165 138.73515182 -22.37240601 135.85797119 C-22.38100647 134.73639618 -22.38960693 133.61482117 -22.39846802 132.45925903 C-22.40272797 131.22287689 -22.40698792 129.98649475 -22.41137695 128.71264648 C-22.41955444 127.41501373 -22.42773193 126.11738098 -22.43615723 124.78042603 C-22.46238364 120.46976806 -22.47768666 116.15910035 -22.49194336 111.84838867 C-22.49730301 110.36450952 -22.50268052 108.88063043 -22.50807571 107.3967514 C-22.52970642 101.22370368 -22.54844265 95.05065858 -22.5596981 88.87758255 C-22.5759338 80.03118346 -22.60909959 71.18522385 -22.66609895 62.33899045 C-22.70480977 56.11895023 -22.72433218 49.89902748 -22.72961867 43.67886996 C-22.73327098 39.96396932 -22.74527813 36.24953735 -22.77772141 32.53476715 C-22.81341723 28.38806571 -22.80942836 24.24230743 -22.80200195 20.09545898 C-22.81840729 18.86717377 -22.83481262 17.63888855 -22.85171509 16.37338257 C-22.78354811 7.09004678 -22.78354811 7.09004678 -20.05703735 3.39837646 C-14.3233959 -1.15275885 -7.02334103 -0.00302522 0 0 Z M39.90649414 27.33276367 C37.79885896 30.12228083 37.07595172 31.70992523 36.78149414 35.14526367 C35.54399414 35.26901367 35.54399414 35.26901367 34.28149414 35.39526367 C23.07839463 37.79592785 15.35901157 44.89224136 8.80102539 53.93041992 C5.96149454 58.45060153 4.25292715 63.0390408 2.78149414 68.14526367 C2.45149414 69.13526367 2.12149414 70.12526367 1.78149414 71.14526367 C0.92547078 84.57824559 2.41966674 95.31196019 10.78149414 106.14526367 C11.22235352 106.76143555 11.66321289 107.37760742 12.11743164 108.01245117 C20.01733907 118.28689725 32.12913331 122.72224525 44.59008789 124.55932617 C56.60624838 125.2378018 67.57674467 120.01438154 76.90258789 112.91479492 C77.52262695 112.33084961 78.14266602 111.7469043 78.78149414 111.14526367 C78.78149414 110.48526367 78.78149414 109.82526367 78.78149414 109.14526367 C79.44149414 109.14526367 80.10149414 109.14526367 80.78149414 109.14526367 C89.46938933 98.17108027 92.88971287 87.16511019 91.78149414 73.14526367 C90.51035539 64.71729328 87.60410478 58.12705924 82.78149414 51.14526367 C82.20399414 50.25838867 81.62649414 49.37151367 81.03149414 48.45776367 C75.21979827 42.4846318 67.71260253 37.7565284 59.78149414 35.14526367 C58.79149414 35.14526367 57.80149414 35.14526367 56.78149414 35.14526367 C56.69899414 34.40276367 56.61649414 33.66026367 56.53149414 32.89526367 C55.63239011 29.5985489 54.3577948 28.33121575 51.78149414 26.14526367 C47.38099152 23.94501236 43.74017686 24.41583117 39.90649414 27.33276367 Z " fill="#FAFAFA" transform="translate(140.218505859375,125.854736328125)"/>
<path d="M0 0 C0 0.99 0 1.98 0 3 C3.65612044 5.33991708 6.73207376 5.37437949 11 5 C13.87391821 3.82725006 13.87391821 3.82725006 16 2 C16.33 1.01 16.66 0.02 17 -1 C23.02770138 -0.52412884 27.76678289 2.19722957 33 5 C33 5.66 33 6.32 33 7 C33.88171875 7.12181641 33.88171875 7.12181641 34.78125 7.24609375 C40.14351516 9.06813103 43.67035217 16.09538426 46.3125 20.875 C52.04141668 33.21798786 50.3258856 45.66532722 46.30859375 58.1484375 C44.68652733 62.39361703 42.33524766 64.98239497 39 68 C38.236875 68.825 37.47375 69.65 36.6875 70.5 C28.73381869 77.89877331 18.40022491 81.90914669 7.5 82.5 C-4.69881746 81.77441978 -15.71496123 76.99339355 -23.90625 67.87890625 C-25.37841121 65.97014821 -26.70995881 64.03480725 -28 62 C-28.556875 61.21625 -29.11375 60.4325 -29.6875 59.625 C-35.19415535 48.61168931 -35.73692066 36.25246731 -32.03515625 24.52734375 C-29.12078477 17.4118783 -24.74331098 12.33477465 -18.83203125 7.5078125 C-16.99630391 6.06158376 -16.99630391 6.06158376 -15.53515625 4.4453125 C-11.45757161 0.60636513 -5.41941444 -2.09783785 0 0 Z M-4.3125 30.3125 C-6.86305539 33.52083021 -8.08597056 35.78744258 -8 40 C-6.69759744 46.21712922 -4.1587618 49.420451 1 53 C4.79257963 55.2354636 7.38902856 55.26344576 11.6796875 54.67578125 C16.30487897 53.3287137 19.69102527 50.1395866 22.17578125 46.078125 C23.93390699 41.64531508 23.45875612 36.72033544 22.25 32.1875 C20.12058641 28.46102622 18.08147051 26.47020457 14.125 24.75 C6.35979081 22.88634979 1.1318782 24.43932829 -4.3125 30.3125 Z " fill="#F4F4F4" transform="translate(179,165)"/>
<path d="M0 0 C0 12.87 0 25.74 0 39 C4.95 36.525 4.95 36.525 10 34 C18.61651113 32.27669777 28.11619914 31.86050924 36.09375 36.1171875 C42.35679183 40.38087367 47.5931549 46.77946471 50 54 C50.28028419 57.39085884 50.27753251 60.78632868 50.3125 64.1875 C50.34150391 65.10853516 50.37050781 66.02957031 50.40039062 66.97851562 C50.48558623 76.21240882 47.289923 82.37902842 41 89 C40.34 89 39.68 89 39 89 C39 89.66 39 90.32 39 91 C29.81345568 96.13014813 20.25628805 97.5106503 10.03125 94.7109375 C6.5018254 93.47563889 3.29332346 91.76428042 0 90 C0 91.65 0 93.3 0 95 C-4.29 95 -8.58 95 -13 95 C-13 63.65 -13 32.3 -13 0 C-11 -1 -11 -1 0 0 Z M3 53 C-0.48818937 58.05787459 -0.29600686 64.35735281 0.625 70.1875 C1.65891098 74.74229701 3.26776715 77.06753134 7 80 C7.60328125 80.52078125 8.2065625 81.0415625 8.828125 81.578125 C13.5414988 84.66385893 19.93667214 84.38930714 25.3125 83.375 C30.95085042 80.49026258 35.0058426 77.09325871 37 71 C37.84795271 63.57779663 37.54954629 57.13521878 33 51 C28.7455766 46.7455766 24.50046409 45.22731492 18.5625 44.6875 C11.7813905 45.28233417 7.38442884 47.86395479 3 53 Z " fill="#EFEFEF" transform="translate(389,152)"/>
<path d="M0 0 C0.78503906 0.05800781 1.57007813 0.11601562 2.37890625 0.17578125 C9.17322451 1.15652632 13.61520366 4.86740894 18 10 C23.62020455 18.93880152 24 24.97704567 24 36 C8.49 36 -7.02 36 -23 36 C-20.31682217 44.60646694 -20.31682217 44.60646694 -17 46 C-17 46.66 -17 47.32 -17 48 C-9.28522417 50.64122886 -3.05914682 51.29382821 5 50 C5 49.34 5 48.68 5 48 C6.95927063 46.2856382 8.95880212 44.61594832 11 43 C14.99500618 44.3697164 17.80009492 46.25722422 21 49 C20.75619076 52.29142474 19.82041725 53.17103119 17.375 55.5 C8.36130146 62.48669456 0.23505465 63.57763777 -11 63 C-16.17535646 62.31616912 -20.79351001 61.25663741 -25 58 C-25 57.34 -25 56.68 -25 56 C-25.59425781 55.77183594 -26.18851562 55.54367188 -26.80078125 55.30859375 C-29.60364073 53.64081768 -30.57791372 51.88031043 -32.1875 49.0625 C-32.69667969 48.18722656 -33.20585937 47.31195313 -33.73046875 46.41015625 C-37.76064657 38.75901867 -37.36343699 26.95957648 -35.10546875 18.74609375 C-34 16.3125 -34 16.3125 -32 13 C-31.34 13 -30.68 13 -30 13 C-29.731875 12.40316406 -29.46375 11.80632812 -29.1875 11.19140625 C-26.38373006 6.01734396 -21.74349803 2.97074536 -16.25 1.125 C-10.7901062 -0.27518521 -5.60069378 -0.43588366 0 0 Z M-20 17 C-20.99 19.97 -21.98 22.94 -23 26 C-12.11 26 -1.22 26 10 26 C9.56649674 18.54430757 9.56649674 18.54430757 5.5 14.0625 C-3.16861279 7.3253963 -12.53629137 9.53629137 -20 17 Z " fill="#EFEFEF" transform="translate(485,185)"/>
<path d="M0 0 C4.29 0 8.58 0 13 0 C15.92062651 5.5989303 18.27484982 11.17569603 20.375 17.125 C23.29135299 25.2263342 26.49711672 33.13455147 30 41 C32.22141738 37.66787393 33.3598625 34.31980852 34.625 30.5625 C37.01142105 23.63511274 39.59179951 16.80297843 42.3125 10 C42.66199707 9.12158447 43.01149414 8.24316895 43.37158203 7.33813477 C45.87180928 1.12819072 45.87180928 1.12819072 47 0 C49.01964199 -0.07244053 51.04167124 -0.08377188 53.0625 -0.0625 C54.71958984 -0.04896484 54.71958984 -0.04896484 56.41015625 -0.03515625 C57.26480469 -0.02355469 58.11945313 -0.01195312 59 0 C58.43265406 5.22093344 57.17300129 9.79193409 55.25 14.6875 C54.84467041 15.74275879 54.84467041 15.74275879 54.43115234 16.81933594 C52.51406272 21.77736526 50.49611653 26.68996546 48.42578125 31.5859375 C46.51314443 36.16578567 44.66019958 40.76863425 42.8125 45.375 C42.29453857 46.66035645 42.29453857 46.66035645 41.76611328 47.97167969 C41.43724121 48.79313477 41.10836914 49.61458984 40.76953125 50.4609375 C40.47667236 51.19103027 40.18381348 51.92112305 39.88208008 52.67333984 C38.84088123 55.41970713 37.92879644 58.21361067 37 61 C32.38 61 27.76 61 23 61 C17.96021134 49.96694916 13.32510512 38.84959671 8.85424805 27.57543945 C6.95898732 22.81729544 5.06421498 18.06815828 2.9765625 13.390625 C2.69014893 12.74875244 2.40373535 12.10687988 2.10864258 11.44555664 C1.37105894 9.81681092 0.61782931 8.1951751 -0.13671875 6.57421875 C-1 4 -1 4 0 0 Z " fill="#EDEDED" transform="translate(279,186)"/>
<path d="M0 0 C3.96 0 7.92 0 12 0 C13.74299388 1.74299388 13.12758682 4.14406252 13.12939453 6.51367188 C13.13254669 7.69159302 13.13569885 8.86951416 13.13894653 10.08312988 C13.1369223 11.36538452 13.13489807 12.64763916 13.1328125 13.96875 C13.13376923 15.27453003 13.13472595 16.58031006 13.13571167 17.92565918 C13.13718833 20.69312722 13.13503511 23.46056304 13.13037109 26.22802734 C13.12467381 29.78262649 13.12795298 33.33715014 13.13394356 36.89174652 C13.13841747 40.27158714 13.13528886 43.65140723 13.1328125 47.03125 C13.13483673 48.31350464 13.13686096 49.59575928 13.13894653 50.91687012 C13.13579437 52.09479126 13.13264221 53.2727124 13.12939453 54.48632812 C13.12859894 55.52921997 13.12780334 56.57211182 13.12698364 57.64660645 C13 60 13 60 12 61 C8.04 61 4.08 61 0 61 C0 40.87 0 20.74 0 0 Z " fill="#EAEAEA" transform="translate(348,186)"/>
<path d="M0 0 C3.375 2.0625 3.375 2.0625 6 5 C6.77152986 9.32056721 6.52747866 11.19119939 4.125 14.875 C1.4126761 17.5873239 0.53758847 17.93914093 -3.3125 18.375 C-7 18 -7 18 -9.9375 16 C-12.21876473 12.68179675 -12.81273098 10.88919871 -12.55078125 6.9375 C-10.90431211 1.14566531 -5.49226188 -1.14422122 0 0 Z " fill="#E5E5E5" transform="translate(357,157)"/>
<path d="M0 0 C-0.97680594 2.17902864 -1.70099121 3.74937574 -3.54929829 5.29859638 C-5.58239597 7.68304229 -5.38408323 9.30246075 -5.39872742 12.40995789 C-5.41126556 13.53316437 -5.42380371 14.65637085 -5.4367218 15.81361389 C-5.43528671 17.04647629 -5.43385162 18.27933868 -5.43237305 19.54956055 C-5.4425647 20.84722351 -5.45275635 22.14488647 -5.46325684 23.48187256 C-5.49087636 27.04152089 -5.50011798 30.60100948 -5.50611091 34.1607511 C-5.51548178 37.88041012 -5.54168406 41.59994921 -5.56611633 45.3195343 C-5.60982059 52.36364656 -5.63834336 59.40773559 -5.66143972 66.45194227 C-5.68847041 74.47127512 -5.73238318 82.49048756 -5.77772844 90.50973451 C-5.87063091 107.00642868 -5.9422859 123.50314441 -6 140 C-6.33 140 -6.66 140 -7 140 C-7.11684559 122.63225402 -7.20499399 105.26463086 -7.25906086 87.89658165 C-7.2848333 79.83212513 -7.31996515 71.76791296 -7.37719727 63.70361328 C-7.42706202 56.67405617 -7.45929801 49.64467603 -7.47044247 42.61494696 C-7.47695617 38.89328643 -7.49224415 35.17213214 -7.52865028 31.450634 C-7.56898101 27.29417293 -7.56994748 23.13858973 -7.56762695 18.98193359 C-7.58560333 17.75050629 -7.60357971 16.51907898 -7.62210083 15.25033569 C-7.56580644 5.94827547 -7.56580644 5.94827547 -4.58952332 2.18862915 C-2 0 -2 0 0 0 Z " fill="#DADADA" transform="translate(125,127)"/>
<path d="M0 0 C-1.30574169 2.91280837 -2.7074208 4.80294493 -5 7 C-5.66 7.99 -6.32 8.98 -7 10 C-6.67506385 6.4257023 -6.36129314 4.44287547 -4.0625 1.625 C-2 0 -2 0 0 0 Z " fill="#B4B4B4" transform="translate(125,127)"/>
</svg>
