<?xml version="1.0" encoding="UTF-8"?>
<svg version="1.1" xmlns="http://www.w3.org/2000/svg" width="620" height="403">
<path d="M0 0 C1.70123772 -0.005476 1.70123772 -0.005476 3.43684387 -0.01106262 C7.1733818 -0.01914691 10.90948326 -0.00557675 14.64599609 0.0090332 C17.24718221 0.00955199 19.84836872 0.00903357 22.44955444 0.00752258 C27.89498232 0.00761221 33.34025115 0.0176829 38.78564453 0.03613281 C45.07448269 0.05731891 51.36313821 0.0608047 57.65200484 0.05457085 C63.71380553 0.04887063 69.77552535 0.05463468 75.83732224 0.0657444 C78.41215125 0.0695947 80.98698576 0.07074532 83.56181717 0.06915855 C87.15720357 0.06878804 90.75231163 0.0814041 94.34765625 0.09765625 C95.41271896 0.09517883 96.47778168 0.09270142 97.57511902 0.09014893 C99.04693886 0.10077614 99.04693886 0.10077614 100.54849243 0.11161804 C101.82213874 0.11469735 101.82213874 0.11469735 103.12151527 0.11783886 C107.38515201 0.56564244 110.05942359 1.96324353 113.31947327 4.71286011 C116.9540726 9.44480948 116.21492532 15.22868392 116.14379883 20.92358398 C116.14774155 22.18599915 116.15168427 23.44841431 116.15574646 24.74908447 C116.16569631 28.19961594 116.14459453 31.64932204 116.11726642 35.09973383 C116.09338533 38.71465577 116.09638098 42.32956279 116.09596252 45.94454956 C116.09133927 52.01224694 116.06772762 58.07962984 116.03149414 64.1472168 C115.98972573 71.16030527 115.97217684 78.17311089 115.96887439 85.18631661 C115.96527408 92.6586821 115.94640221 100.13094602 115.92175412 107.6032691 C115.91552882 109.75461843 115.91189048 111.90596003 115.90872002 114.05731583 C115.90171962 118.06494571 115.87732672 122.07228565 115.85083008 126.07983398 C115.85016541 127.27162262 115.84950073 128.46341125 115.84881592 129.6913147 C115.83385323 131.32731628 115.83385323 131.32731628 115.81858826 132.99636841 C115.81393775 133.94355303 115.80928724 134.89073765 115.80449581 135.86662483 C115.38434193 139.91479162 114.11607512 141.84281812 111.15026855 144.58996582 C106.47462556 147.46537394 101.16607145 146.92899973 95.85107422 146.88989258 C94.09394356 146.90040649 94.09394356 146.90040649 92.30131531 146.91113281 C88.43419601 146.92871904 84.56781017 146.91708686 80.70068359 146.90356445 C78.01077687 146.90445552 75.32088316 146.91013544 72.63098145 146.91516113 C66.99544345 146.92242921 61.36011545 146.91287212 55.72460938 146.89379883 C49.21813392 146.87203142 42.7121599 146.87908341 36.20569658 146.90110445 C30.60973091 146.91928263 25.0139158 146.92180506 19.41793013 146.91134977 C16.07986047 146.90512791 12.74221491 146.90582325 9.40412903 146.91749573 C5.68167232 146.92765571 1.96017801 146.91216573 -1.76220703 146.88989258 C-2.86264847 146.8979895 -3.9630899 146.90608643 -5.09687805 146.91442871 C-11.1576266 146.84725599 -14.92568452 146.5682235 -19.45556641 142.37231445 C-25.64711569 133.84400069 -22.6019045 114.33361435 -22.58837891 104.11450195 C-22.58905562 102.27727241 -22.59002868 100.44004296 -22.59127808 98.60281372 C-22.59274297 94.76539247 -22.59064318 90.92799467 -22.5859375 87.09057617 C-22.58029674 82.26470424 -22.58360846 77.43888799 -22.58934402 72.61301804 C-22.60726594 55.22213332 -22.59198895 37.82850598 -22.13525391 20.44262695 C-22.11326935 19.26997284 -22.09128479 18.09731873 -22.06863403 16.88912964 C-22.01629105 15.29163376 -22.01629105 15.29163376 -21.96289062 13.66186523 C-21.93750214 12.75236115 -21.91211365 11.84285706 -21.88595581 10.90579224 C-21.33721748 7.67565611 -20.52414915 5.93054139 -18.45556641 3.37231445 C-12.50140672 -0.21283313 -6.81362149 -0.04908656 0 0 Z M37.54443359 30.37231445 C36.1309359 33.76649666 36.1309359 33.76649666 36.54443359 37.37231445 C38.27709339 40.3977009 40.3818496 42.79102245 43.54443359 44.37231445 C47.72587371 44.76678994 49.85389407 44.82266631 53.41943359 42.49731445 C55.58396206 40.55678065 55.58396206 40.55678065 56.54443359 38.37231445 C59.60693359 37.74731445 59.60693359 37.74731445 62.54443359 37.37231445 C60.61896919 35.14870766 60.61896919 35.14870766 57.54443359 34.37231445 C56.85693359 32.30981445 56.85693359 32.30981445 56.54443359 30.37231445 C55.88443359 30.37231445 55.22443359 30.37231445 54.54443359 30.37231445 C54.11130859 29.41325195 54.11130859 29.41325195 53.66943359 28.43481445 C52.71619908 26.22025366 52.71619908 26.22025366 50.54443359 25.37231445 C44.45941037 24.67019639 41.63767546 25.79178189 37.54443359 30.37231445 Z M63.54443359 37.37231445 C62.88443359 38.03231445 62.22443359 38.69231445 61.54443359 39.37231445 C62.31787109 39.77321289 63.09130859 40.17411133 63.88818359 40.5871582 C74.64563197 46.45848832 82.36058315 53.63778321 86.22412109 65.45043945 C89.35716813 77.38176925 87.83149899 88.68023105 81.98193359 99.43481445 C78.15584834 105.51040711 72.49318658 112.05606346 65.54443359 114.37231445 C65.54443359 115.03231445 65.54443359 115.69231445 65.54443359 116.37231445 C64.96693359 116.47543945 64.38943359 116.57856445 63.79443359 116.68481445 C61.22394201 117.47024244 59.60786076 118.67735643 57.54443359 120.37231445 C67.62342825 119.36441499 74.79891871 113.61415485 81.54443359 106.37231445 C87.12544582 98.63239215 90.33212346 90.92034214 91.16943359 81.43481445 C91.26482422 80.41516602 91.36021484 79.39551758 91.45849609 78.3449707 C91.54100743 75.49082857 91.22598177 73.13411042 90.54443359 70.37231445 C89.88443359 70.37231445 89.22443359 70.37231445 88.54443359 70.37231445 C88.74294922 69.64786133 88.94146484 68.9234082 89.14599609 68.17700195 C89.97543514 62.33840158 86.46746814 56.46595155 83.29443359 51.68481445 C78.54308405 45.50514511 72.48036302 40.84027916 65.54443359 37.37231445 C64.88443359 37.37231445 64.22443359 37.37231445 63.54443359 37.37231445 Z M28.54443359 37.37231445 C15.13612332 45.11062118 7.5153898 54.050375 3.22802734 69.1184082 C1.84653951 75.6942903 2.10991801 81.8411866 3.54443359 88.37231445 C3.87443359 88.37231445 4.20443359 88.37231445 4.54443359 88.37231445 C5.37329966 84.53880887 5.49685107 81.13260554 5.29443359 77.24731445 C5.21371632 67.34599501 10.37272756 57.91551072 16.54443359 50.37231445 C19.300463 47.63934805 22.05899921 45.11503165 25.54443359 43.37231445 C25.54443359 42.71231445 25.54443359 42.05231445 25.54443359 41.37231445 C27.19443359 41.04231445 28.84443359 40.71231445 30.54443359 40.37231445 C29.88443359 39.38231445 29.22443359 38.39231445 28.54443359 37.37231445 Z M36.54443359 66.37231445 C33.1613027 69.83796073 32.28058607 72.59392104 32.04443359 77.30981445 C32.30769962 83.3376987 34.15204384 87.12491802 38.60693359 91.30981445 C44.08631463 93.29171823 50.00255256 93.29171823 55.48193359 91.30981445 C59.67263458 87.37309535 61.76240598 83.57121724 62.04443359 77.87231445 C61.80625225 73.05940863 60.40372207 70.23621781 57.54443359 66.37231445 C50.66411338 60.79367644 43.59085756 61.89688302 36.54443359 66.37231445 Z M5.54443359 86.37231445 C4.17249964 90.36339505 4.73993276 93.24946984 6.32568359 97.1184082 C9.65606634 103.27748142 14.56028928 108.51082246 19.54443359 113.37231445 C20.20443359 113.04231445 20.86443359 112.71231445 21.54443359 112.37231445 C20.46162109 111.41325195 20.46162109 111.41325195 19.35693359 110.43481445 C15.85265081 106.97058061 13.77084155 102.72091553 11.54443359 98.37231445 C10.88443359 98.37231445 10.22443359 98.37231445 9.54443359 98.37231445 C9.42326172 97.75743164 9.30208984 97.14254883 9.17724609 96.5090332 C9.00966797 95.70079102 8.84208984 94.89254883 8.66943359 94.05981445 C8.50701172 93.25930664 8.34458984 92.45879883 8.17724609 91.6340332 C7.5996436 89.11930327 7.5996436 89.11930327 5.54443359 86.37231445 Z M21.54443359 113.37231445 C24.44753608 116.63062007 26.86148564 118.15966224 30.98193359 119.55981445 C31.90876953 119.88336914 32.83560547 120.20692383 33.79052734 120.5402832 C41.16949248 122.76967267 49.02136009 123.37846739 56.54443359 121.37231445 C56.54443359 121.04231445 56.54443359 120.71231445 56.54443359 120.37231445 C55.31208984 120.35813477 54.07974609 120.34395508 52.81005859 120.3293457 C43.75394044 120.10951478 36.16417675 119.62294991 27.89208984 115.52856445 C25.7560435 114.47653497 23.86710991 113.84654999 21.54443359 113.37231445 Z " fill="#282C37" transform="translate(138.45556640625,127.627685546875)"/>
<path d="M0 0 C3.96 0 7.92 0 12 0 C12 13.2 12 26.4 12 40 C13.98 38.68 15.96 37.36 18 36 C26.57116267 31.92717802 35.60911443 31.81843098 44.546875 34.83984375 C52.97757121 38.82697237 57.63515006 45.54281019 61 54 C63.69260776 62.07782327 62.87262757 72.20573311 59.265625 79.8515625 C54.76661405 87.48877245 49.13342672 92.22087408 40.5625 94.75 C31.24926815 97.01571904 24.85428648 95.25674905 16 92 C16 91.34 16 90.68 16 90 C14.68 89.67 13.36 89.34 12 89 C12 90.65 12 92.3 12 94 C7.71 94 3.42 94 -1 94 C-1.02312178 81.89158056 -1.04091424 69.78316633 -1.05181217 57.67472935 C-1.05704136 52.05292038 -1.06413966 46.43112647 -1.07543945 40.80932617 C-1.08626706 35.38881723 -1.09227656 29.9683228 -1.09487724 24.54780388 C-1.09673172 22.47485055 -1.10035277 20.40189806 -1.10573006 18.32895088 C-1.1129388 15.43616107 -1.11399101 12.54343204 -1.11352539 9.65063477 C-1.11712067 8.78461136 -1.12071594 7.91858795 -1.12442017 7.02632141 C-1.11405216 1.11405216 -1.11405216 1.11405216 0 0 Z M15 53 C11.62457908 58.06313138 11.85960626 63.85899554 12.25 69.8125 C13.47828546 75.0327132 15.29736579 77.7371628 19.6875 80.75 C25.42041401 84.05584093 30.22365641 84.71560297 36.625 83 C41.38889067 81.21972252 44.29510024 78.25055676 47 74 C48.93474075 68.19577776 49.06308281 60.82246617 46.8125 55.0625 C44.03987482 50.37771952 41.71133873 47.65342024 36.5625 45.6875 C27.44384049 43.92775869 21.219232 45.89230628 15 53 Z " fill="#32363F" transform="translate(373,153)"/>
<path d="M0 0 C2.9375 2.4375 2.9375 2.4375 5 5 C6.051875 6.0828125 6.051875 6.0828125 7.125 7.1875 C12.35540894 15.03311341 12 22.51004161 12 32 C-3.18 32 -18.36 32 -34 32 C-33.01 34.97 -32.02 37.94 -31 41 C-29.68 41.66 -28.36 42.32 -27 43 C-26.05125 43.515625 -25.1025 44.03125 -24.125 44.5625 C-19.52656855 46.67777847 -16.43718322 47.27735115 -11.4375 46.3125 C-7.96299449 44.98587062 -5.79960473 43.39966119 -3 41 C-2.34 41 -1.68 41 -1 41 C-1 40.34 -1 39.68 -1 39 C2.15330554 39.60694155 4.18888867 40.6416665 6.75 42.5625 C7.36359375 43.01753906 7.9771875 43.47257812 8.609375 43.94140625 C9.29773438 44.46541016 9.29773438 44.46541016 10 45 C7.52220249 50.87186388 2.24802557 54.50653487 -3.4296875 57.1171875 C-12.99341176 60.32546561 -22.72573708 59.9724232 -32 56 C-39.02074184 52.08613817 -43.40217966 46.64819042 -46.234375 39.140625 C-48.42817202 30.1415801 -48.38070237 19.52325548 -44.33984375 11.08203125 C-39.61619371 3.74178207 -33.11694338 -1.12190564 -24.7734375 -3.421875 C-15.91438466 -5.2685508 -8.07436178 -4.08358527 0 0 Z M-29.43359375 11.58203125 C-32.25493777 15.25057773 -33.04591332 17.22956661 -34 22 C-23.11 22 -12.22 22 -1 22 C-2.05478624 15.67128255 -3.34938462 12.40965035 -8.0625 8.125 C-15.16454612 5.40506744 -24.09020357 5.68537451 -29.43359375 11.58203125 Z " fill="#2F333D" transform="translate(491,190)"/>
<path d="M0 0 C1.93681161 -0.08107583 3.8745934 -0.13922475 5.8125 -0.1875 C6.89144531 -0.22230469 7.97039062 -0.25710937 9.08203125 -0.29296875 C12 0 12 0 13.72265625 1.08984375 C15.55405289 3.82853781 16.52311419 6.64409966 17.625 9.75 C18.13870567 11.17256955 18.65446557 12.59439837 19.171875 14.015625 C19.45611328 14.79873047 19.74035156 15.58183594 20.03320312 16.38867188 C21.90837333 21.45352554 23.89865394 26.47396763 25.875 31.5 C26.28057129 32.53350586 26.68614258 33.56701172 27.10400391 34.63183594 C28.06830395 37.08829825 29.03362217 39.54435452 30 42 C31.20909729 38.83362452 32.41720058 35.66687076 33.625 32.5 C33.98674316 31.5519751 34.34848633 30.6039502 34.72119141 29.62719727 C36.42704701 25.15111342 38.12708903 20.67327337 39.796875 16.18359375 C40.1997876 15.10078125 40.1997876 15.10078125 40.61083984 13.99609375 C41.10792578 12.65697917 41.60314447 11.31716946 42.09619141 9.9765625 C43.25171423 6.86406555 44.50989797 3.98020406 46 1 C50.29 1 54.58 1 59 1 C57.10737897 10.46310517 53.40800633 19.31826396 49.31640625 28.02734375 C47.72803584 31.61413866 46.35660892 35.25805496 45 38.9375 C37.95352172 58.04647828 37.95352172 58.04647828 36 60 C33.64686445 60.07271741 31.29166332 60.08370868 28.9375 60.0625 C27.64714844 60.05347656 26.35679687 60.04445312 25.02734375 60.03515625 C24.02832031 60.02355469 23.02929688 60.01195312 22 60 C21.68546875 59.09378906 21.3709375 58.18757813 21.046875 57.25390625 C20.61890625 56.03574219 20.1909375 54.81757813 19.75 53.5625 C19.33234375 52.36753906 18.9146875 51.17257813 18.484375 49.94140625 C17.17173587 46.34407291 15.64632088 42.86567928 14.07080078 39.37670898 C9.45988276 29.14248943 5.05392988 18.79306049 0.875 8.375 C0.48054688 7.39273438 0.08609375 6.41046875 -0.3203125 5.3984375 C-1 3 -1 3 0 0 Z " fill="#30343D" transform="translate(276,187)"/>
<path d="M0 0 C0 19.47 0 38.94 0 59 C-4.29 59 -8.58 59 -13 59 C-13 39.53 -13 20.06 -13 0 C-3 -1 -3 -1 0 0 Z " fill="#363A43" transform="translate(357,188)"/>
<path d="M0 0 C0 0.33 0 0.66 0 1 C-2.97 1 -5.94 1 -9 1 C-9 3.31 -9 5.62 -9 8 C-8.34 8.33 -7.68 8.66 -7 9 C-8.32 8.67 -9.64 8.34 -11 8 C-11 8.33 -11 8.66 -11 9 C-10.14535156 9.04898438 -9.29070312 9.09796875 -8.41015625 9.1484375 C-7.30542969 9.22320312 -6.20070313 9.29796875 -5.0625 9.375 C-3.40927734 9.47941406 -3.40927734 9.47941406 -1.72265625 9.5859375 C-0.37494141 9.79089844 -0.37494141 9.79089844 1 10 C1.495 10.99 1.495 10.99 2 12 C1.13117188 11.97679687 0.26234375 11.95359375 -0.6328125 11.9296875 C-1.78523438 11.91164062 -2.93765625 11.89359375 -4.125 11.875 C-5.26195312 11.85179687 -6.39890625 11.82859375 -7.5703125 11.8046875 C-11.08961683 12.00510346 -13.75866198 12.63547809 -17 14 C-18.24174796 15.9001177 -18.24174796 15.9001177 -19 18 C-20.625 19.75 -20.625 19.75 -22 21 C-22.33 20.34 -22.66 19.68 -23 19 C-23.99 19 -24.98 19 -26 19 C-26 19.66 -26 20.32 -26 21 C-26.66 20.67 -27.32 20.34 -28 20 C-30.94729537 18.84188612 -30.94729537 18.84188612 -34 19 C-32.39959119 11.70924876 -26.99110039 7.06985568 -21 3 C-14.09303265 0.008212 -7.43667094 -0.38173026 0 0 Z " fill="#3C4049" transform="translate(480,186)"/>
<path d="M0 0 C2.9375 2.0625 2.9375 2.0625 5 5 C5.65622237 9.08316143 5.37781677 11.22793965 3.5625 14.9375 C0.29922849 17.5640356 -1.77068956 17.67360891 -5.87109375 17.41015625 C-8 17 -8 17 -10.5625 15.5 C-12.57641782 11.99753422 -12.87555677 8.87856287 -12 5 C-8.64524049 0.12034981 -5.82662873 -1.04046942 0 0 Z " fill="#252933" transform="translate(354,159)"/>
<path d="M0 0 C1.93681161 -0.08107583 3.8745934 -0.13922475 5.8125 -0.1875 C6.89144531 -0.22230469 7.97039062 -0.25710937 9.08203125 -0.29296875 C12 0 12 0 13.78125 1.1875 C15.30239884 3.44972135 15.97096056 5.56018872 16.6875 8.1875 C16.93886719 9.08855469 17.19023437 9.98960937 17.44921875 10.91796875 C17.63097656 11.60503906 17.81273437 12.29210937 18 13 C11.375 16 11.375 16 8 16 C7.34 17.32 6.68 18.64 6 20 C4.80077976 17.23371889 3.61539501 14.462845 2.4375 11.6875 C1.92413086 10.50897461 1.92413086 10.50897461 1.40039062 9.30664062 C1.08134766 8.54931641 0.76230469 7.79199219 0.43359375 7.01171875 C0.13509521 6.31522217 -0.16340332 5.61872559 -0.47094727 4.90112305 C-1 3 -1 3 0 0 Z " fill="#3B3F47" transform="translate(276,187)"/>
<path d="M0 0 C3.15330554 0.60694155 5.18888867 1.6416665 7.75 3.5625 C8.67039062 4.24505859 8.67039062 4.24505859 9.609375 4.94140625 C10.29773438 5.46541016 10.29773438 5.46541016 11 6 C9.53185858 9.58702661 7.61565711 11.40373148 4.5625 13.75 C3.78003906 14.36359375 2.99757813 14.9771875 2.19140625 15.609375 C0 17 0 17 -3 17 C-2.835 15.906875 -2.67 14.81375 -2.5 13.6875 C-1.93281816 10.12474127 -1.93281816 10.12474127 -2 7 C-0.5 4.8125 -0.5 4.8125 1 3 C-0.65 3.66 -2.3 4.32 -4 5 C-3.34 4.01 -2.68 3.02 -2 2 C-1.34 2 -0.68 2 0 2 C0 1.34 0 0.68 0 0 Z " fill="#3F434B" transform="translate(490,229)"/>
<path d="M0 0 C2.0622048 -0.054348 4.12482816 -0.09294961 6.1875 -0.125 C7.33605469 -0.14820313 8.48460937 -0.17140625 9.66796875 -0.1953125 C12.91740372 -0.00484152 15.08660521 0.60639873 18 2 C17.67 2.99 17.34 3.98 17 5 C16.01 4.67 15.02 4.34 14 4 C13.67 4.66 13.34 5.32 13 6 C12.01 6.66 11.02 7.32 10 8 C10 8.33 10 8.66 10 9 C6.04 9 2.08 9 -2 9 C-2 8.01 -2 7.02 -2 6 C-1.34 6.33 -0.68 6.66 0 7 C0 4.69 0 2.38 0 0 Z " fill="#252932" transform="translate(471,187)"/>
<path d="M0 0 C1.44010481 0.25662245 2.8770687 0.53090821 4.3125 0.8125 C5.11300781 0.96332031 5.91351563 1.11414063 6.73828125 1.26953125 C9.23445587 2.07572236 10.32422106 3.02052002 12 5 C11.360625 5.185625 10.72125 5.37125 10.0625 5.5625 C7.59722815 6.92071493 7.59722815 6.92071493 7.375 10.4375 C7.25125 11.613125 7.1275 12.78875 7 14 C6.01 15.485 6.01 15.485 5 17 C4.649375 16.54625 4.29875 16.0925 3.9375 15.625 C1.22903794 13.35338666 -1.60795328 12.83201146 -5 12 C-4.01 11.67 -3.02 11.34 -2 11 C-2 10.34 -2 9.68 -2 9 C-1.360625 8.7525 -0.72125 8.505 -0.0625 8.25 C2.18741541 7.18437567 2.18741541 7.18437567 2.75 4.875 C2.8325 4.25625 2.915 3.6375 3 3 C2.01 2.67 1.02 2.34 0 2 C0 1.34 0 0.68 0 0 Z " fill="#41434C" transform="translate(411,187)"/>
<path d="M0 0 C2.3125 -0.3125 2.3125 -0.3125 5 0 C6.875 2.375 6.875 2.375 8 5 C7.67 5.66 7.34 6.32 7 7 C6.34 7 5.68 7 5 7 C5 7.99 5 8.98 5 10 C4.01 10.33 3.02 10.66 2 11 C1.01 12.485 1.01 12.485 0 14 C0 13.34 0 12.68 0 12 C-0.66 12 -1.32 12 -2 12 C-2.33 11.01 -2.66 10.02 -3 9 C-2.34 9 -1.68 9 -1 9 C-1.20625 8.443125 -1.4125 7.88625 -1.625 7.3125 C-2.10695211 4.340462 -1.26565028 2.68020059 0 0 Z " fill="#2B2F38" transform="translate(419,192)"/>
<path d="M0 0 C2.97 0.33 5.94 0.66 9 1 C7.68 1.33 6.36 1.66 5 2 C5 3.32 5 4.64 5 6 C4.34 6 3.68 6 3 6 C3.350625 6.61875 3.70125 7.2375 4.0625 7.875 C4.371875 8.57625 4.68125 9.2775 5 10 C4.67 10.66 4.34 11.32 4 12 C1.36 11.34 -1.28 10.68 -4 10 C-4 9.34 -4 8.68 -4 8 C-4.66 7.67 -5.32 7.34 -6 7 C-4.02 6.34 -2.04 5.68 0 5 C0 3.35 0 1.7 0 0 Z " fill="#42454D" transform="translate(393,235)"/>
<path d="M0 0 C0.33 0 0.66 0 1 0 C1 3.96 1 7.92 1 12 C-4.61 12 -10.22 12 -16 12 C-16 11.67 -16 11.34 -16 11 C-12.7 11 -9.4 11 -6 11 C-6 10.01 -6 9.02 -6 8 C-5.01 8 -4.02 8 -3 8 C-3 7.01 -3 6.02 -3 5 C-2.01 5 -1.02 5 0 5 C0 3.35 0 1.7 0 0 Z " fill="#43464D" transform="translate(502,210)"/>
<path d="M0 0 C3 2 3 2 4 5 C4 4.34 4 3.68 4 3 C4.61488281 3.08378906 5.22976563 3.16757813 5.86328125 3.25390625 C6.67152344 3.35574219 7.47976563 3.45757812 8.3125 3.5625 C9.11300781 3.66691406 9.91351563 3.77132812 10.73828125 3.87890625 C13.16817116 4.14755178 13.16817116 4.14755178 16 3 C14.125 6.875 14.125 6.875 13 8 C8.63773388 8.53975301 5.13259341 8.77347843 1.4375 6.25 C0 4 0 4 0 0 Z " fill="#484B52" transform="translate(342,168)"/>
<path d="M0 0 C0.99 0.66 1.98 1.32 3 2 C2.55149342 3.81495662 2.09090429 5.62693134 1.625 7.4375 C1.36976563 8.44683594 1.11453125 9.45617187 0.8515625 10.49609375 C0 13 0 13 -2 14 C-2.99 11.69 -3.98 9.38 -5 7 C-4.360625 6.5875 -3.72125 6.175 -3.0625 5.75 C-0.79009069 3.82189513 -0.39803561 2.88575819 0 0 Z " fill="#30333B" transform="translate(142,187)"/>
<path d="M0 0 C0.33 0 0.66 0 1 0 C1 2.31 1 4.62 1 7 C1.66 7 2.32 7 3 7 C4.125 8.6875 4.125 8.6875 5 11 C4.125 13.75 4.125 13.75 3 16 C2.01 16 1.02 16 0 16 C0 10.72 0 5.44 0 0 Z " fill="#3F424A" transform="translate(344,231)"/>
<path d="M0 0 C4.29107165 -0.4206933 6.35134537 -0.45543836 9.9375 2.0625 C12.45543836 5.64865463 12.4206933 7.70892835 12 12 C11.67 12 11.34 12 11 12 C11 10.35 11 8.7 11 7 C8.525 6.01 8.525 6.01 6 5 C6 4.34 6 3.68 6 3 C4.02 2.34 2.04 1.68 0 1 C0 0.67 0 0.34 0 0 Z " fill="#4F5257" transform="translate(347,159)"/>
<path d="M0 0 C0.33 0.66 0.66 1.32 1 2 C2.32 1.67 3.64 1.34 5 1 C5.66 2.98 6.32 4.96 7 7 C3.93606987 7.25532751 2.36766788 7.21861333 -0.3125 5.625 C-0.869375 5.08875 -1.42625 4.5525 -2 4 C-2 3.34 -2 2.68 -2 2 C-1.34 2 -0.68 2 0 2 C0 1.34 0 0.68 0 0 Z " fill="#2F313A" transform="translate(121,266)"/>
<path d="M0 0 C0 0.99 0 1.98 0 3 C-2.57005801 3.0713905 -4.66414024 3.10866051 -7.125 2.3125 C-7.74375 2.209375 -8.3625 2.10625 -9 2 C-10.77190909 3.35444301 -10.77190909 3.35444301 -12 5 C-12 3.35 -12 1.7 -12 0 C-10.37585622 -0.19477739 -8.75063577 -0.38059458 -7.125 -0.5625 C-6.22007812 -0.66691406 -5.31515625 -0.77132812 -4.3828125 -0.87890625 C-2 -1 -2 -1 0 0 Z " fill="#3E4249" transform="translate(356,188)"/>
<path d="M0 0 C0.33 0.66 0.66 1.32 1 2 C-0.5608131 5.04358554 -2.19373073 7.97948613 -5 10 C-7.1875 9.6875 -7.1875 9.6875 -9 9 C-8.2575 8.443125 -7.515 7.88625 -6.75 7.3125 C-4.08292005 5.06972822 -2.08443768 2.77925025 0 0 Z " fill="#515358" transform="translate(421,225)"/>
<path d="M0 0 C0.66 0.33 1.32 0.66 2 1 C1.01 4.3 0.02 7.6 -1 11 C-1.33 10.34 -1.66 9.68 -2 9 C-2.99 9 -3.98 9 -5 9 C-5 7 -5 7 -3 5 C-1.97695052 3.34738161 -0.97383946 1.68208635 0 0 Z " fill="#45484F" transform="translate(331,193)"/>
<path d="M0 0 C-0.33 0.99 -0.66 1.98 -1 3 C-1.99 3 -2.98 3 -4 3 C-6.39971554 4.93823179 -6.99796679 5.99390037 -8 9 C-8.66 9 -9.32 9 -10 9 C-9.1381848 5.76819302 -8.51738545 3.51738545 -6.125 1.125 C-4 0 -4 0 0 0 Z " fill="#505157" transform="translate(127,129)"/>
<path d="M0 0 C-0.66 0 -1.32 0 -2 0 C-2.66 1.32 -3.32 2.64 -4 4 C-6.31 4 -8.62 4 -11 4 C-7.84441727 0.34616736 -4.73375145 -1.57791715 0 0 Z " fill="#56585D" transform="translate(399,188)"/>
<path d="M0 0 C3.79588866 0.54226981 5.47211993 2.20127563 8 5 C6.25 5.75 6.25 5.75 4 6 C1.75 4.1875 1.75 4.1875 0 2 C0 1.34 0 0.68 0 0 Z " fill="#53555B" transform="translate(459,231)"/>
<path d="M0 0 C2.64 0.99 5.28 1.98 8 3 C8 3.66 8 4.32 8 5 C5.36 5 2.72 5 0 5 C0 3.35 0 1.7 0 0 Z " fill="#242730" transform="translate(377,241)"/>
<path d="M0 0 C0.99 0.66 1.98 1.32 3 2 C2.34 3.98 1.68 5.96 1 8 C0.01 7.67 -0.98 7.34 -2 7 C-2.33 7.66 -2.66 8.32 -3 9 C-2.30058404 5.85262818 -1.23921302 2.97411124 0 0 Z " fill="#454850" transform="translate(142,187)"/>
<path d="M0 0 C0.66 0.33 1.32 0.66 2 1 C2 1.99 2 2.98 2 4 C-0.31 4.66 -2.62 5.32 -5 6 C-5.33 5.01 -5.66 4.02 -6 3 C-4.03533587 1.93224776 -2.03144641 0.93446535 0 0 Z " fill="#000000" transform="translate(174,162)"/>
<path d="M0 0 C3 1 3 1 6 3 C6.6875 5.625 6.6875 5.625 7 8 C3.28631113 6.76210371 2.22645819 5.14775123 0 2 C0 1.34 0 0.68 0 0 Z " fill="#6E7179" transform="translate(448,234)"/>
<path d="M0 0 C3.37462715 0.54723683 5.08235 1.0549 8 3 C5.36 3.66 2.72 4.32 0 5 C0 3.35 0 1.7 0 0 Z " fill="#494C53" transform="translate(481,187)"/>
<path d="M0 0 C2.31 0.33 4.62 0.66 7 1 C7 1.99 7 2.98 7 4 C5.02 4 3.04 4 1 4 C0.67 2.68 0.34 1.36 0 0 Z " fill="#393B43" transform="translate(349,243)"/>
<path d="M0 0 C2 2 2 2 2.125 4.625 C2.08375 5.40875 2.0425 6.1925 2 7 C0.68 6.67 -0.64 6.34 -2 6 C-1.125 1.125 -1.125 1.125 0 0 Z " fill="#252831" transform="translate(500,208)"/>
<path d="M0 0 C0.33 0.66 0.66 1.32 1 2 C1.99 2.33 2.98 2.66 4 3 C3.01 3.99 2.02 4.98 1 6 C0.01 5.34 -0.98 4.68 -2 4 C-2 3.34 -2 2.68 -2 2 C-1.34 2 -0.68 2 0 2 C0 1.34 0 0.68 0 0 Z " fill="#3B3E44" transform="translate(121,266)"/>
<path d="M0 0 C1.98 0.99 1.98 0.99 4 2 C3.67 3.32 3.34 4.64 3 6 C2.34 6 1.68 6 1 6 C0.67 4.02 0.34 2.04 0 0 Z " fill="#4F5156" transform="translate(297,241)"/>
<path d="M0 0 C0.33 1.32 0.66 2.64 1 4 C0.360625 4.12375 -0.27875 4.2475 -0.9375 4.375 C-1.9584375 4.684375 -1.9584375 4.684375 -3 5 C-3.33 5.66 -3.66 6.32 -4 7 C-3.6875 4.625 -3.6875 4.625 -3 2 C-2.01 1.34 -1.02 0.68 0 0 Z " fill="#424449" transform="translate(346,160)"/>
<path d="M0 0 C1.32 0 2.64 0 4 0 C3.67 1.65 3.34 3.3 3 5 C2.01 4.67 1.02 4.34 0 4 C0 2.68 0 1.36 0 0 Z " fill="#33363B" transform="translate(195,158)"/>
<path d="" fill="#000000" transform="translate(0,0)"/>
</svg>
